<?xml version="1.0" encoding="UTF-8" standalone="no"?>
<!-- Created with Inkscape (http://www.inkscape.org/) -->

<svg
   width="102mm"
   height="67mm"
   viewBox="0 0 102 67"
   version="1.1"
   id="svg5"
   inkscape:version="1.1.1 (3bf5ae0d25, 2021-09-20)"
   sodipodi:docname="cloud.svg"
   inkscape:export-filename="/home/davide/Documents/freedpm/src/assets/cloud.png"
   inkscape:export-xdpi="96"
   inkscape:export-ydpi="96"
   xmlns:inkscape="http://www.inkscape.org/namespaces/inkscape"
   xmlns:sodipodi="http://sodipodi.sourceforge.net/DTD/sodipodi-0.dtd"
   xmlns:xlink="http://www.w3.org/1999/xlink"
   xmlns="http://www.w3.org/2000/svg"
   xmlns:svg="http://www.w3.org/2000/svg">
  <sodipodi:namedview
     id="namedview7"
     pagecolor="#505050"
     bordercolor="#eeeeee"
     borderopacity="1"
     inkscape:pageshadow="0"
     inkscape:pageopacity="0"
     inkscape:pagecheckerboard="0"
     inkscape:document-units="mm"
     showgrid="false"
     inkscape:zoom="0.68150253"
     inkscape:cx="396.18342"
     inkscape:cy="85.839741"
     inkscape:window-width="1920"
     inkscape:window-height="1009"
     inkscape:window-x="0"
     inkscape:window-y="0"
     inkscape:window-maximized="1"
     inkscape:current-layer="layer1" />
  <defs
     id="defs2">
    <linearGradient
       inkscape:collect="always"
       id="linearGradient1073">
      <stop
         style="stop-color:#f4f4f4;stop-opacity:1;"
         offset="0"
         id="stop1069" />
      <stop
         style="stop-color:#b3ffff;stop-opacity:1"
         offset="1"
         id="stop1071" />
    </linearGradient>
    <radialGradient
       inkscape:collect="always"
       xlink:href="#linearGradient1073"
       id="radialGradient1077"
       cx="27.356987"
       cy="11.685209"
       fx="27.356987"
       fy="11.685209"
       r="51.490208"
       gradientTransform="matrix(1.3767517,0.50104961,-0.47500054,1.3450498,-8.0971308,-11.75111)"
       gradientUnits="userSpaceOnUse" />
  </defs>
  <g
     inkscape:label="Layer 1"
     inkscape:groupmode="layer"
     id="layer1">
    <path
       id="path846"
       style="fill:url(#radialGradient1077);fill-opacity:1;fill-rule:evenodd;stroke:none;stroke-width:1.06283"
       d="M 55.076009,0.00203474 A 16.92656,21.90707 0.96629346 0 0 40.546278,10.043388 21.626663,17.146026 22.918342 0 0 29.864596,2.1428032 21.626663,17.146026 22.918342 0 0 3.5660219,10.044947 21.626663,17.146026 22.918342 0 0 9.7009918,29.361755 17.173382,21.592213 78.462948 0 0 0.23698638,47.097929 17.173382,21.592213 78.462948 0 0 24.613069,59.859411 17.173382,21.592213 78.462948 0 0 36.563104,54.128696 16.933386,21.898238 9.1933347 0 0 48.983522,66.755079 16.933386,21.898238 9.1933347 0 0 64.862476,59.048308 21.662907,17.11734 31.12394 0 0 70.6412,63.510151 21.662907,17.11734 31.12394 0 0 97.76026,59.353317 21.662907,17.11734 31.12394 0 0 95.688312,41.13755 17.15487,21.615514 70.113011 0 0 101.28993,23.443463 17.15487,21.615514 70.113011 0 0 75.417221,14.205418 17.15487,21.615514 70.113011 0 0 71.060401,16.152895 16.92656,21.90707 0.96629346 0 0 55.076009,0.00203474 Z M 39.551764,31.864169 a 16.92656,21.90707 0.96629346 0 0 0.175562,0.445302 16.933386,21.898238 9.1933347 0 0 -0.116189,0.195372 17.173382,21.592213 78.462948 0 0 -0.335255,-0.402174 21.626663,17.146026 22.918342 0 0 0.275882,-0.2385 z" />
  </g>
</svg>
